<svg width="110" height="76" viewBox="0 0 110 76" fill="none" xmlns="http://www.w3.org/2000/svg">
<path fill-rule="evenodd" clip-rule="evenodd" d="M4.45312 34.952C4.17812 34.852 3.82812 34.452 3.82812 34.242C3.82812 33.942 5.01814 32.977 6.48814 32.092C7.24814 31.627 8.11313 31.077 8.38813 30.882L16.5181 25.577C17.0081 25.252 17.4581 24.992 17.5431 25.012C17.6281 25.027 17.7181 24.862 17.7581 24.637C17.8981 23.837 17.9581 19.987 17.9181 15.162C17.9181 15.162 17.9181 12.677 18.2031 12.417C18.4881 12.157 22.2931 12.362 22.2931 12.362C26.3031 12.387 26.3581 12.402 26.6581 12.677C26.9429 12.9517 26.9431 12.9919 26.9581 15.3955L26.9581 15.402V18.202C26.9581 18.487 27.0081 18.542 27.3231 18.542C27.6381 18.542 32.5781 15.357 32.5781 15.357C32.8131 15.217 33.7531 14.617 34.6681 14.007C35.5831 13.407 36.4681 12.857 36.6181 12.797C36.6181 12.797 44.9831 7.41698 45.5881 7.03199C46.1931 6.647 49.8481 9.30699 49.8481 9.30699C49.8481 9.30699 54.5631 12.547 55.0531 12.547C55.5431 12.547 57.4031 11.167 57.4031 11.167L59.5231 9.79199C59.5231 9.79199 63.0131 7.41699 63.5131 7.42699C64.0131 7.43699 71.3481 12.242 71.3481 12.242L77.7732 16.457L80.2982 18.087L91.5532 25.517C92.5932 26.207 93.6932 26.932 94.0182 27.127C94.3432 27.327 95.1832 27.877 95.8932 28.352C96.6032 28.817 98.4182 30.017 99.9282 31.012C101.443 32.002 102.833 32.982 102.893 33.012C102.953 33.042 103.453 33.667 103.203 34.167C102.953 34.667 102.518 34.567 102.253 34.462L81.2932 20.822C79.9932 19.957 78.3532 18.882 77.6682 18.432L71.9132 14.602C71.0282 14.052 69.7732 13.242 66.1732 10.852C64.5632 9.77699 63.7081 9.28699 63.4581 9.28699C63.2331 9.28699 62.6831 9.57199 61.9331 10.077C61.2831 10.517 60.6831 10.902 60.5831 10.952C60.0081 11.202 57.1731 13.277 57.0831 13.502C56.9981 13.727 57.0581 13.867 57.3831 14.167L64.4381 18.682L75.6531 25.907C77.1681 26.922 78.8131 27.982 79.3131 28.297C79.8131 28.597 81.0782 29.407 82.1282 30.097C84.8282 31.872 86.0782 32.687 86.5132 32.957C87.3982 33.507 87.9631 34.057 87.9631 34.347C87.9631 34.672 87.5532 35.037 87.1732 35.037C86.8482 35.037 85.5632 34.362 84.1382 33.427C76.2382 28.277 73.7382 26.667 72.6382 25.962L55.2531 14.687L48.0331 9.82699C47.5931 9.40199 46.2831 8.77699 45.8181 8.77699C45.7081 8.77699 45.3281 8.96699 44.9831 9.20199L36.9081 14.422L19.2281 25.767C18.6281 26.167 17.5631 26.867 16.8781 27.307C14.0781 29.057 10.9531 31.057 8.60313 32.592C4.70312 35.417 4.95312 35.167 4.45312 34.942V34.952ZM25.6681 17.197C25.6281 19.472 25.5931 19.812 25.3931 20.037C25.3931 20.037 19.8431 23.407 19.5281 23.097C19.2131 22.787 19.2031 22.747 19.2781 21.497C19.2781 21.497 19.2181 14.367 19.3181 14.182C19.4181 13.997 25.5831 13.977 25.6431 14.322C25.7031 14.667 25.6931 15.757 25.6681 17.197Z" fill="white"/>
<path d="M26.9581 15.402C26.9581 16.752 26.9581 18.002 26.9581 18.202M26.9581 15.402L26.9581 15.3955M26.9581 15.402V18.202M26.9581 15.402C26.9581 15.3998 26.9581 15.3977 26.9581 15.3955M26.9581 18.202C26.9581 18.487 27.0081 18.542 27.3231 18.542C27.6381 18.542 32.5781 15.357 32.5781 15.357C32.8131 15.217 33.7531 14.617 34.6681 14.007C35.5831 13.407 36.4681 12.857 36.6181 12.797C36.6181 12.797 44.9831 7.41698 45.5881 7.03199C46.1931 6.647 49.8481 9.30699 49.8481 9.30699C49.8481 9.30699 54.5631 12.547 55.0531 12.547C55.5431 12.547 57.4031 11.167 57.4031 11.167L59.5231 9.79199C59.5231 9.79199 63.0131 7.41699 63.5131 7.42699C64.0131 7.43699 71.3481 12.242 71.3481 12.242L77.7732 16.457L80.2982 18.087L91.5532 25.517C92.5932 26.207 93.6932 26.932 94.0182 27.127C94.3432 27.327 95.1832 27.877 95.8932 28.352C96.6032 28.817 98.4182 30.017 99.9282 31.012C101.443 32.002 102.833 32.982 102.893 33.012C102.953 33.042 103.453 33.667 103.203 34.167C102.953 34.667 102.518 34.567 102.253 34.462L81.2932 20.822C79.9932 19.957 78.3532 18.882 77.6682 18.432L71.9132 14.602C71.0282 14.052 69.7732 13.242 66.1732 10.852C64.5632 9.77699 63.7081 9.28699 63.4581 9.28699C63.2331 9.28699 62.6831 9.57199 61.9331 10.077C61.2831 10.517 60.6831 10.902 60.5831 10.952C60.0081 11.202 57.1731 13.277 57.0831 13.502C56.9981 13.727 57.0581 13.867 57.3831 14.167L64.4381 18.682L75.6531 25.907C77.1681 26.922 78.8131 27.982 79.3131 28.297C79.8131 28.597 81.0782 29.407 82.1282 30.097C84.8282 31.872 86.0782 32.687 86.5132 32.957C87.3982 33.507 87.9631 34.057 87.9631 34.347C87.9631 34.672 87.5532 35.037 87.1732 35.037C86.8482 35.037 85.5632 34.362 84.1382 33.427C76.2382 28.277 73.7382 26.667 72.6382 25.962L55.2531 14.687L48.0331 9.82699C47.5931 9.40199 46.2831 8.77699 45.8181 8.77699C45.7081 8.77699 45.3281 8.96699 44.9831 9.20199L36.9081 14.422L19.2281 25.767C18.6281 26.167 17.5631 26.867 16.8781 27.307C14.0781 29.057 10.9531 31.057 8.60313 32.592C4.70312 35.417 4.95312 35.167 4.45312 34.942V34.952C4.17812 34.852 3.82812 34.452 3.82812 34.242C3.82812 33.942 5.01814 32.977 6.48814 32.092C7.24814 31.627 8.11313 31.077 8.38813 30.882L16.5181 25.577C17.0081 25.252 17.4581 24.992 17.5431 25.012C17.6281 25.027 17.7181 24.862 17.7581 24.637C17.8981 23.837 17.9581 19.987 17.9181 15.162C17.9181 15.162 17.9181 12.677 18.2031 12.417C18.4881 12.157 22.2931 12.362 22.2931 12.362C26.3031 12.387 26.3581 12.402 26.6581 12.677C26.9429 12.9517 26.9431 12.9919 26.9581 15.3955M25.3931 20.037C25.5931 19.812 25.6281 19.472 25.6681 17.197C25.6931 15.757 25.7031 14.667 25.6431 14.322C25.5831 13.977 19.4181 13.997 19.3181 14.182C19.2181 14.367 19.2781 21.497 19.2781 21.497C19.2031 22.747 19.2131 22.787 19.5281 23.097C19.8431 23.407 25.3931 20.037 25.3931 20.037Z" stroke="white" stroke-width="0.5"/>
<path d="M94.4431 4.30794C94.3681 4.10794 94.2531 3.85793 94.1931 3.74293C94.1281 3.61793 94.0831 3.40294 94.0831 3.25294C94.0831 3.03794 94.1331 3.00293 94.3681 3.06293C94.5181 3.11293 94.7931 3.17293 94.9931 3.21293C95.1831 3.26293 95.3331 3.33793 95.3331 3.38793C95.3331 3.51293 94.7081 4.63793 94.6331 4.63793C94.6081 4.63793 94.5231 4.48793 94.4431 4.29793V4.30794Z" fill="white"/>
<path d="M90.4532 4.40794C90.4532 4.34294 90.3132 4.17294 90.1382 4.00794C89.6382 3.51794 89.7282 3.26794 90.3882 3.26794C90.8982 3.26794 90.9532 3.29294 90.9532 3.58294C90.9532 3.93294 90.7032 4.52294 90.5532 4.52294C90.5032 4.52294 90.4532 4.47294 90.4532 4.41294V4.40794Z" fill="white"/>
<path d="M82.9032 2.98792C82.7032 2.68792 82.7132 2.48792 82.9882 1.93792C83.1782 1.51292 83.3882 1.58793 83.8132 2.19793C84.1632 2.70793 84.1782 2.76292 83.9732 2.93792C83.8632 3.03792 83.6082 3.16293 83.4232 3.21293C83.1632 3.27793 83.0482 3.23792 82.8982 2.98792H82.9032Z" fill="white"/>
<path d="M101.538 3.04793C101.263 2.74793 101.278 2.28793 101.578 1.92293C101.778 1.67293 101.853 1.66293 102.068 1.79793C102.208 1.88293 102.383 2.09792 102.443 2.28792C102.678 2.97792 102.003 3.56293 101.543 3.04793H101.538Z" fill="white"/>
<path d="M88.2681 2.93294C88.1281 2.90794 87.8581 2.82294 87.6681 2.74294C87.3531 2.61794 87.3431 2.58294 87.5181 2.48294C88.0181 2.20794 88.4781 2.15794 88.8431 2.34294C89.3331 2.59294 89.3431 3.01794 88.8681 3.00794C88.6681 2.99294 88.4031 2.96794 88.2681 2.93294Z" fill="white"/>
<path d="M95.9531 2.87292C95.9531 2.77292 96.0931 2.57292 96.2381 2.40792C96.5881 2.09292 97.1631 2.08292 97.5881 2.40792C97.8631 2.60792 97.8631 2.62292 97.6281 2.74792C97.5031 2.81292 97.0631 2.90792 96.6781 2.96292C96.0931 3.03792 95.9531 3.02792 95.9531 2.87792V2.87292Z" fill="white"/>
<path fill-rule="evenodd" clip-rule="evenodd" d="M91.7931 6.85296C91.3831 6.75296 90.5181 6.00297 90.2531 5.51797C90.1531 5.31797 90.0781 4.94297 90.0781 4.68297C90.0781 4.27297 90.0131 4.13296 89.6381 3.85796C88.8631 3.27296 88.4281 3.15797 86.3531 3.05797L84.3931 2.94797L84.1081 3.24796C83.8831 3.48296 83.7331 3.54796 83.3081 3.50796C82.8581 3.48296 82.7431 3.40796 82.6081 3.12296C82.3831 2.65796 82.4531 2.17796 82.8281 1.80296C82.9881 1.64296 83.1031 1.29296 83.1031 1.29296C83.1031 1.29296 83.1031 1.02295 83.5131 1.02296C83.9231 1.02296 83.7281 1.02296 83.7281 1.29296C83.7281 1.56296 84.0131 1.92296 84.0131 1.92296C84.1881 2.22296 84.3881 2.46297 84.4531 2.44797C84.5181 2.43297 85.5031 2.29796 86.6431 2.14796L88.7331 1.88796L89.1981 2.25297C89.4481 2.44297 89.8481 2.72797 90.0631 2.87797L90.4731 3.15296L90.6731 2.85296C90.7831 2.67796 91.1831 2.36296 91.5581 2.15296C92.6231 1.53796 93.0081 1.64297 94.7181 2.89297C94.9181 3.04297 95.0431 2.97796 95.7181 2.46796L96.4931 1.88296L97.5081 2.03297C98.0731 2.11797 98.9931 2.24796 99.5731 2.29296C100.148 2.35796 100.698 2.46796 100.798 2.55296C100.938 2.66296 100.988 2.63796 101.048 2.46796C101.088 2.32796 101.208 2.04296 101.323 1.80296C101.433 1.56796 101.578 1.40796 101.578 1.29296C101.578 1.15296 101.673 1.02296 101.938 1.02296L101.955 1.02295C102.264 1.02287 102.288 1.02286 102.253 1.29296C102.228 1.48296 102.318 1.66796 102.478 1.79296C102.843 2.06796 102.943 2.83296 102.678 3.23296C102.518 3.48296 102.363 3.54796 101.938 3.54796C101.353 3.54796 101.103 3.38796 101.103 3.00796C101.103 2.83296 101.053 2.79296 100.888 2.85796C100.763 2.90796 99.8732 2.99797 98.9132 3.05797C96.6632 3.19797 96.5031 3.23296 95.8231 3.67296C95.3131 4.01296 95.2381 4.12296 95.1581 4.64796C94.9831 5.82296 94.1831 6.72296 93.1081 6.92296C93.1081 6.92296 92.6001 7.0272 92.2781 6.98296C92.0839 6.95627 91.7931 6.85296 91.7931 6.85296ZM94.0781 4.24796C94.0781 4.68296 93.6131 5.62297 93.3531 5.69797L93.3481 5.70296C92.0231 6.07796 91.1981 5.56296 91.1981 4.38796C91.1981 2.96296 92.8231 2.42796 93.7631 3.53796C93.9381 3.74796 94.0781 4.05796 94.0781 4.24796ZM94.4931 3.77296C94.3431 3.38796 94.4531 3.28296 94.7931 3.49796C94.8881 3.55796 94.8881 3.65796 94.7781 3.87296C94.6331 4.14796 94.6331 4.14796 94.4931 3.77296ZM90.2531 3.53796C90.3631 3.36296 90.7031 3.51297 90.7031 3.71297C90.7031 3.80797 90.6581 3.90797 90.5931 3.94797C90.4431 4.04797 90.1681 3.68796 90.2531 3.53796ZM83.5131 2.29796C83.5681 2.46296 83.6631 2.62296 83.7281 2.66296V2.65797C83.7881 2.69797 83.6881 2.79796 83.5131 2.87296C83.1531 3.03296 83.0281 2.88296 83.1031 2.38296C83.1481 1.99796 83.4131 1.94796 83.5131 2.29796ZM102.093 2.16296C102.153 2.26296 102.193 2.47796 102.178 2.63796V2.64297C102.138 2.98797 101.943 3.09297 101.728 2.87797C101.518 2.66297 101.543 2.33796 101.778 2.13796C101.943 2.01296 101.993 2.01296 102.093 2.16296ZM88.2881 2.54296C88.5031 2.54296 88.7231 2.58796 88.7631 2.65296V2.65797C88.8481 2.79797 88.8031 2.79797 88.2631 2.65797L87.8881 2.55797L88.2881 2.54296ZM96.5581 2.52796C96.7131 2.44796 96.9231 2.43796 97.0981 2.51296L97.0931 2.51797C97.3481 2.60297 97.3231 2.62796 96.8581 2.66796C96.2581 2.72796 96.2181 2.71796 96.5581 2.52796Z" fill="white"/>
<path fill-rule="evenodd" clip-rule="evenodd" d="M94.4931 3.77296C94.3431 3.38796 94.4531 3.28296 94.7931 3.49796C94.8881 3.55796 94.8881 3.65796 94.7781 3.87296C94.6331 4.14796 94.6331 4.14796 94.4931 3.77296ZM90.2531 3.53796C90.3631 3.36296 90.7031 3.51297 90.7031 3.71297C90.7031 3.80797 90.6581 3.90797 90.5931 3.94797C90.4431 4.04797 90.1681 3.68796 90.2531 3.53796ZM83.5131 2.29796C83.5681 2.46296 83.6631 2.62296 83.7281 2.66296V2.65797C83.7881 2.69797 83.6881 2.79796 83.5131 2.87296C83.1531 3.03296 83.0281 2.88296 83.1031 2.38296C83.1481 1.99796 83.4131 1.94796 83.5131 2.29796ZM102.093 2.16296C102.153 2.26296 102.193 2.47796 102.178 2.63796V2.64297C102.138 2.98797 101.943 3.09297 101.728 2.87797C101.518 2.66297 101.543 2.33796 101.778 2.13796C101.943 2.01296 101.993 2.01296 102.093 2.16296ZM88.2881 2.54296C88.5031 2.54296 88.7231 2.58796 88.7631 2.65296V2.65797C88.8481 2.79797 88.8031 2.79797 88.2631 2.65797L87.8881 2.55797L88.2881 2.54296ZM96.5581 2.52796C96.7131 2.44796 96.9231 2.43796 97.0981 2.51296L97.0931 2.51797C97.3481 2.60297 97.3231 2.62796 96.8581 2.66796C96.2581 2.72796 96.2181 2.71796 96.5581 2.52796Z" fill="white"/>
<path d="M101.938 1.02296C101.673 1.02296 101.578 1.15296 101.578 1.29296C101.578 1.40796 101.433 1.56796 101.323 1.80296C101.208 2.04296 101.088 2.32796 101.048 2.46796C100.988 2.63796 100.938 2.66296 100.798 2.55296C100.698 2.46796 100.148 2.35796 99.5731 2.29296C98.9931 2.24796 98.0731 2.11797 97.5081 2.03297L96.4931 1.88296L95.7181 2.46796C95.0431 2.97796 94.9181 3.04297 94.7181 2.89297C93.0081 1.64297 92.6231 1.53796 91.5581 2.15296C91.1831 2.36296 90.7831 2.67796 90.6731 2.85296L90.4731 3.15296L90.0631 2.87797C89.8481 2.72797 89.4481 2.44297 89.1981 2.25297L88.7331 1.88796L86.6431 2.14796C85.5031 2.29796 84.5181 2.43297 84.4531 2.44797C84.3881 2.46297 84.1881 2.22296 84.0131 1.92296C84.0131 1.92296 83.7281 1.56296 83.7281 1.29296C83.7281 1.02296 83.9231 1.02296 83.5131 1.02296C83.1031 1.02295 83.1031 1.29296 83.1031 1.29296C83.1031 1.29296 82.9881 1.64296 82.8281 1.80296C82.4531 2.17796 82.3831 2.65796 82.6081 3.12296C82.7431 3.40796 82.8581 3.48296 83.3081 3.50796C83.7331 3.54796 83.8831 3.48296 84.1081 3.24796L84.3931 2.94797L86.3531 3.05797C88.4281 3.15797 88.8631 3.27296 89.6381 3.85796C90.0131 4.13296 90.0781 4.27297 90.0781 4.68297C90.0781 4.94297 90.1531 5.31797 90.2531 5.51797C90.5181 6.00297 91.3831 6.75296 91.7931 6.85296C91.7931 6.85296 92.0839 6.95627 92.2781 6.98296C92.6001 7.0272 93.1081 6.92296 93.1081 6.92296C94.1831 6.72296 94.9831 5.82296 95.1581 4.64796C95.2381 4.12296 95.3131 4.01296 95.8231 3.67296C96.5031 3.23296 96.6632 3.19797 98.9132 3.05797C99.8732 2.99797 100.763 2.90796 100.888 2.85796C101.053 2.79296 101.103 2.83296 101.103 3.00796C101.103 3.38796 101.353 3.54796 101.938 3.54796C102.363 3.54796 102.518 3.48296 102.678 3.23296C102.943 2.83296 102.843 2.06796 102.478 1.79296C102.318 1.66796 102.228 1.48296 102.253 1.29296C102.288 1.02286 102.264 1.02287 101.955 1.02295M101.938 1.02296L101.955 1.02295M101.938 1.02296C101.944 1.02296 101.95 1.02295 101.955 1.02295M93.3531 5.69797C93.6131 5.62297 94.0781 4.68296 94.0781 4.24796C94.0781 4.05796 93.9381 3.74796 93.7631 3.53796C92.8231 2.42796 91.1981 2.96296 91.1981 4.38796C91.1981 5.56296 92.0231 6.07796 93.3481 5.70296L93.3531 5.69797ZM94.7931 3.49796C94.4531 3.28296 94.3431 3.38796 94.4931 3.77296C94.6331 4.14796 94.6331 4.14796 94.7781 3.87296C94.8881 3.65796 94.8881 3.55796 94.7931 3.49796ZM90.7031 3.71297C90.7031 3.51297 90.3631 3.36296 90.2531 3.53796C90.1681 3.68796 90.4431 4.04797 90.5931 3.94797C90.6581 3.90797 90.7031 3.80797 90.7031 3.71297ZM83.7281 2.66296C83.6631 2.62296 83.5681 2.46296 83.5131 2.29796C83.4131 1.94796 83.1481 1.99796 83.1031 2.38296C83.0281 2.88296 83.1531 3.03296 83.5131 2.87296C83.6881 2.79796 83.7881 2.69797 83.7281 2.65797V2.66296ZM102.178 2.63796C102.193 2.47796 102.153 2.26296 102.093 2.16296C101.993 2.01296 101.943 2.01296 101.778 2.13796C101.543 2.33796 101.518 2.66297 101.728 2.87797C101.943 3.09297 102.138 2.98797 102.178 2.64297V2.63796ZM88.7631 2.65296C88.7231 2.58796 88.5031 2.54296 88.2881 2.54296L87.8881 2.55797L88.2631 2.65797C88.8031 2.79797 88.8481 2.79797 88.7631 2.65797V2.65296ZM97.0981 2.51296C96.9231 2.43796 96.7131 2.44796 96.5581 2.52796C96.2181 2.71796 96.2581 2.72796 96.8581 2.66796C97.3231 2.62796 97.3481 2.60297 97.0931 2.51797L97.0981 2.51296Z" stroke="white" stroke-width="0.125"/>
<path d="M79.1432 1.18661C79.0182 1.10161 78.9432 0.936612 78.9932 0.836612C79.0782 0.586612 80.5782 0.45161 81.9432 0.56161C83.0682 0.66161 83.2332 0.821616 82.5282 1.16162C81.9632 1.42162 79.4932 1.44661 79.1382 1.18661H79.1432Z" fill="white" stroke="white" stroke-width="0.125"/>
<path d="M102.703 1.04795C102.178 0.622951 102.478 0.522949 104.253 0.522949C105.588 0.522949 105.953 0.562952 106.078 0.712952C106.203 0.862952 106.203 0.937952 106.078 1.08795C105.953 1.23795 105.603 1.27795 104.453 1.27795C103.218 1.27795 102.938 1.23795 102.703 1.05295V1.04795Z" fill="white" stroke="white" stroke-width="0.125"/>
<path d="M84.3109 1.04795C83.7859 0.622951 84.0859 0.522949 85.8609 0.522949C87.1959 0.522949 87.5609 0.562952 87.6859 0.712952C87.8109 0.862952 87.8109 0.937952 87.6859 1.08795C87.5609 1.23795 87.2109 1.27795 86.0609 1.27795C84.8259 1.27795 84.5459 1.23795 84.3109 1.05295V1.04795Z" fill="white" stroke="white" stroke-width="0.125"/>
<path d="M0.35376 43.4882C0.642008 43.3909 1.01074 43.3085 1.45996 43.2411C1.91292 43.1738 2.39771 43.1214 2.91431 43.0839C3.43465 43.0465 3.94189 43.0278 4.43604 43.0278C5.74626 43.0278 6.73267 43.3441 7.39526 43.9767C8.0616 44.6057 8.39478 45.6501 8.39478 47.11C8.39478 48.016 8.22632 48.7609 7.8894 49.3449C7.55623 49.9289 7.09953 50.3631 6.51929 50.6476C5.93905 50.9284 5.27645 51.0688 4.53149 51.0688H1.87549C1.70703 51.0688 1.59098 51.0332 1.52734 50.9621C1.46745 50.8872 1.4375 50.7693 1.4375 50.6083L1.44873 43.915C1.44873 43.915 1.39445 43.9168 1.28589 43.9206C1.17733 43.9206 1.05005 43.9225 0.904053 43.9262C0.7618 43.93 0.634521 43.9337 0.522217 43.9374C0.413656 43.9374 0.357503 43.9374 0.35376 43.9374V43.4882ZM2.75708 50.277C2.75708 50.277 2.82259 50.2845 2.95361 50.2995C3.08464 50.3107 3.24935 50.3238 3.44775 50.3388C3.6499 50.35 3.85392 50.3557 4.05981 50.3557C4.99194 50.3557 5.70508 50.1048 6.19922 49.6032C6.6971 49.1016 6.94604 48.2705 6.94604 47.11C6.94604 46.3876 6.86743 45.7774 6.71021 45.2795C6.55672 44.7816 6.28906 44.4035 5.90723 44.1452C5.52913 43.8832 5.0013 43.7521 4.32373 43.7521C4.06169 43.7521 3.809 43.7615 3.56567 43.7802C3.32609 43.7952 3.12956 43.812 2.97607 43.8307C2.82259 43.8457 2.74585 43.8513 2.74585 43.8476L2.75708 50.277ZM17.3585 50.1816L18.2682 49.5864L18.5433 49.9626C18.431 50.1198 18.2813 50.292 18.0941 50.4792C17.9069 50.6664 17.7029 50.8292 17.482 50.9677C17.2612 51.1025 17.044 51.1699 16.8307 51.1699C16.7221 51.1699 16.6117 51.1418 16.4994 51.0856C16.3908 51.0332 16.2897 50.9321 16.1961 50.7824L14.4498 47.9748C14.3562 47.9748 14.169 47.9729 13.8883 47.9692C13.6075 47.9617 13.3024 47.9448 12.973 47.9186V49.3C12.973 49.7754 13.0011 50.1479 13.0572 50.4174C13.1171 50.6832 13.1583 50.8704 13.1808 50.9789C13.0722 51.0388 12.9356 51.0856 12.7708 51.1193C12.6099 51.153 12.4639 51.1699 12.3329 51.1699C12.1382 51.1699 11.9753 51.1306 11.8443 51.0519C11.717 50.9696 11.6534 50.8217 11.6534 50.6083V43.8813L10.5697 43.9487V43.4545C10.6445 43.4283 10.7475 43.3928 10.8785 43.3478C11.0133 43.2992 11.2061 43.2505 11.4569 43.2018C11.7114 43.1532 12.0521 43.112 12.4788 43.0783C12.9056 43.0446 13.4503 43.0278 14.1129 43.0278C14.5396 43.0278 14.9402 43.0652 15.3145 43.1401C15.6889 43.2149 16.0202 43.346 16.3084 43.5331C16.5967 43.7166 16.8213 43.973 16.9823 44.3024C17.147 44.6319 17.2293 45.0511 17.2293 45.5602C17.2293 46.1068 17.1002 46.5691 16.8419 46.9472C16.5873 47.3216 16.2186 47.5948 15.7357 47.767L17.3585 50.1816ZM12.973 47.1269C12.973 47.1269 13.061 47.1475 13.2369 47.1887C13.4128 47.2298 13.6674 47.2504 14.0006 47.2504C14.5134 47.2504 14.9046 47.1699 15.1742 47.009C15.4474 46.848 15.6346 46.6384 15.7357 46.3801C15.8368 46.1218 15.8873 45.8485 15.8873 45.5602C15.8873 45.3207 15.8648 45.0942 15.8199 44.8808C15.7787 44.6637 15.6908 44.4728 15.556 44.308C15.425 44.1396 15.2266 44.0086 14.9608 43.915C14.695 43.8176 14.3394 43.769 13.8939 43.769C13.7554 43.769 13.6056 43.7727 13.4447 43.7802C13.2874 43.7877 13.1302 43.8027 12.973 43.8251V47.1269ZM27.9731 47.11C27.9731 47.9336 27.8215 48.6599 27.5182 49.2888C27.2188 49.9177 26.7864 50.4081 26.2211 50.7599C25.6559 51.1118 24.9783 51.2878 24.1884 51.2878C23.3985 51.2878 22.7191 51.1118 22.1501 50.7599C21.5848 50.4081 21.1506 49.9177 20.8473 49.2888C20.5441 48.6599 20.3925 47.9336 20.3925 47.11C20.3925 46.2865 20.5441 45.5602 20.8473 44.9313C21.1506 44.3024 21.5848 43.812 22.1501 43.4601C22.7191 43.1045 23.3985 42.9267 24.1884 42.9267C24.9783 42.9267 25.6559 43.1045 26.2211 43.4601C26.7864 43.812 27.2188 44.3024 27.5182 44.9313C27.8215 45.5602 27.9731 46.2865 27.9731 47.11ZM21.8525 47.11C21.8525 47.7839 21.9273 48.3828 22.0771 48.9069C22.2306 49.4273 22.4776 49.8353 22.8183 50.131C23.1627 50.4268 23.6194 50.5746 24.1884 50.5746C24.7537 50.5746 25.2048 50.4268 25.5417 50.131C25.8823 49.8316 26.1294 49.4217 26.2829 48.9013C26.4364 48.3772 26.5131 47.7801 26.5131 47.11C26.5131 46.4737 26.4382 45.8934 26.2885 45.3693C26.1388 44.8452 25.8936 44.426 25.5529 44.1115C25.216 43.7971 24.7612 43.6398 24.1884 43.6398C23.7617 43.6398 23.3985 43.7334 23.0991 43.9206C22.8033 44.104 22.5637 44.3586 22.3803 44.6843C22.1969 45.0062 22.0621 45.3768 21.976 45.7961C21.8936 46.2116 21.8525 46.6496 21.8525 47.11ZM32.1751 43.2018L36.583 49.227C36.5643 47.6398 36.5213 46.3426 36.4539 45.3356C36.3865 44.3249 36.3098 43.6286 36.2237 43.2468C36.2311 43.2468 36.2798 43.2337 36.3696 43.2075C36.4595 43.1775 36.6673 43.127 36.9929 43.0558C37.0304 43.0371 37.0921 43.0278 37.1782 43.0278C37.3205 43.0278 37.4047 43.112 37.4309 43.2805C37.4609 43.4452 37.4758 43.7334 37.4758 44.1452C37.4758 44.4971 37.4684 44.907 37.4534 45.3749C37.4422 45.8391 37.4253 46.3333 37.4029 46.8574C37.3841 47.3777 37.3617 47.8999 37.3355 48.424C37.3093 48.9481 37.2812 49.446 37.2512 49.9177C37.225 50.3893 37.197 50.8067 37.167 51.1699H36.6504C36.5344 51.1699 36.4501 51.153 36.3977 51.1193C36.3453 51.0856 36.2948 51.0388 36.2461 50.9789L32.0291 45.1559C32.0965 45.9907 32.1432 46.7451 32.1695 47.4189C32.1957 48.089 32.2088 48.6467 32.2088 49.0922C32.2088 49.6575 32.1938 50.0955 32.1638 50.4062C32.1376 50.7132 32.1096 50.9265 32.0796 51.0463C32.0534 51.1624 32.0403 51.2204 32.0403 51.2204L31.3496 51.0912C31.0501 51.0351 30.9004 50.8666 30.9004 50.5859C30.9004 50.496 30.9116 50.4006 30.9341 50.2995C30.9865 50.0637 31.0314 49.7848 31.0689 49.4628C31.1063 49.1409 31.1344 48.7216 31.1531 48.205C31.1756 47.6847 31.1868 47.0146 31.1868 46.1948C31.1868 45.7119 31.183 45.2739 31.1756 44.8808C31.1681 44.4877 31.1643 44.104 31.1643 43.7297H30.0806V43.2861C30.1854 43.2337 30.3913 43.1775 30.6983 43.1176C31.0052 43.0577 31.3365 43.0278 31.6922 43.0278C31.928 43.0278 32.089 43.0858 32.1751 43.2018ZM41.4588 51.0688C41.2866 51.0501 41.1706 51.0051 41.1107 50.934C41.0508 50.8629 41.0209 50.7468 41.0209 50.5859V43.8139H39.9483V43.3647C40.0981 43.3123 40.3601 43.2617 40.7345 43.2131C41.1088 43.1607 41.5487 43.1176 42.0541 43.0839C42.5632 43.0465 43.0891 43.0278 43.6319 43.0278C43.8977 43.0278 44.1935 43.0334 44.5191 43.0446C44.8486 43.0521 45.163 43.0746 45.4625 43.112C45.762 43.1494 46.0091 43.2056 46.2037 43.2805C46.3984 43.3516 46.4957 43.4527 46.4957 43.5837C46.4957 43.6323 46.4583 43.7297 46.3834 43.8757C46.3085 44.0217 46.2281 44.1639 46.142 44.3024C46.0596 44.4409 46.0053 44.527 45.9791 44.5607C45.9791 44.557 45.8893 44.5008 45.7096 44.3923C45.5336 44.2837 45.2678 44.177 44.9122 44.0722C44.5603 43.9636 44.1186 43.9075 43.587 43.9037L42.3404 43.8925V46.5485H45.3109V46.8237C45.3109 47.0183 45.2678 47.1531 45.1817 47.228C45.0994 47.3028 44.9665 47.3403 44.7831 47.3403H42.3404V50.277H43.3568C43.8584 50.277 44.3619 50.2433 44.8673 50.176C45.3764 50.1048 45.8724 49.9925 46.3553 49.8391C46.3516 49.8391 46.3703 49.9064 46.4115 50.0412C46.4527 50.176 46.4733 50.3201 46.4733 50.4736C46.4733 50.7057 46.3909 50.8685 46.2262 50.9621C46.0652 51.0519 45.7994 51.1025 45.4288 51.1137C45.0582 51.1287 44.5622 51.1362 43.9408 51.1362C43.6001 51.1362 43.2632 51.1324 42.93 51.1249C42.5969 51.1175 42.2993 51.1081 42.0372 51.0969C41.7789 51.0894 41.5861 51.08 41.4588 51.0688ZM55.8824 46.2734C56.2193 46.4156 56.5581 46.5691 56.8987 46.7338C57.2431 46.8948 57.5576 47.0782 57.8421 47.2841C58.1303 47.49 58.3606 47.7315 58.5328 48.0085C58.705 48.2818 58.7911 48.6037 58.7911 48.9743C58.7911 49.461 58.6656 49.8765 58.4148 50.2209C58.1678 50.5653 57.8383 50.8292 57.4266 51.0126C57.0148 51.1961 56.5655 51.2878 56.0789 51.2878C55.5922 51.2878 55.1037 51.2241 54.6133 51.0969C54.1267 50.9733 53.6681 50.7693 53.2376 50.4848C53.1552 50.4324 53.0747 50.3631 52.9961 50.277C52.9175 50.1872 52.8782 50.0955 52.8782 50.0019C52.8782 49.9233 52.9063 49.854 52.9624 49.7941L53.5352 49.1147C53.7748 49.3056 54.0443 49.5134 54.3438 49.738C54.6433 49.9626 54.9484 50.1572 55.2591 50.322C55.5735 50.4829 55.8655 50.5634 56.135 50.5634C56.3634 50.5634 56.5787 50.5148 56.7808 50.4174C56.9867 50.3201 57.1533 50.1835 57.2806 50.0075C57.4116 49.8278 57.4771 49.6144 57.4771 49.3674C57.4771 49.0529 57.3723 48.774 57.1626 48.5307C56.953 48.2874 56.6816 48.0703 56.3484 47.8793C56.019 47.6884 55.6709 47.5181 55.304 47.3683C54.7013 47.1138 54.2446 46.8574 53.9339 46.5991C53.6269 46.3408 53.4191 46.0843 53.3106 45.8298C53.2058 45.5715 53.1534 45.3207 53.1534 45.0773C53.1534 44.6618 53.2526 44.3155 53.451 44.0385C53.6494 43.7615 53.9095 43.5425 54.2315 43.3815C54.5534 43.2168 54.9034 43.1008 55.2815 43.0334C55.6596 42.9623 56.0284 42.9267 56.3877 42.9267C56.545 42.9267 56.7377 42.9379 56.9661 42.9604C57.1982 42.9791 57.4284 43.0128 57.6568 43.0615C57.8851 43.1064 58.0742 43.17 58.2239 43.2524C58.3774 43.3347 58.4541 43.4377 58.4541 43.5612C58.4541 43.6211 58.4317 43.6941 58.3868 43.7802L57.9375 44.5495C57.6081 44.3586 57.2544 44.1658 56.8763 43.9711C56.4982 43.7727 56.0864 43.6735 55.6409 43.6735C55.3227 43.6735 55.0438 43.7727 54.8042 43.9711C54.5647 44.1658 54.4449 44.4615 54.4449 44.8583C54.4449 45.0829 54.5122 45.2832 54.647 45.4592C54.7855 45.6314 54.9633 45.783 55.1805 45.914C55.4013 46.045 55.6353 46.1648 55.8824 46.2734ZM62.3192 51.0688C62.147 51.0501 62.031 51.0051 61.9711 50.934C61.9112 50.8629 61.8812 50.7468 61.8812 50.5859V43.8139H60.8087V43.3647C60.9585 43.3123 61.2205 43.2617 61.5949 43.2131C61.9692 43.1607 62.4091 43.1176 62.9144 43.0839C63.4235 43.0465 63.9495 43.0278 64.4923 43.0278C64.7581 43.0278 65.0538 43.0334 65.3795 43.0446C65.7089 43.0521 66.0234 43.0746 66.3229 43.112C66.6224 43.1494 66.8694 43.2056 67.0641 43.2805C67.2588 43.3516 67.3561 43.4527 67.3561 43.5837C67.3561 43.6323 67.3186 43.7297 67.2438 43.8757C67.1689 44.0217 67.0884 44.1639 67.0023 44.3024C66.92 44.4409 66.8657 44.527 66.8395 44.5607C66.8395 44.557 66.7496 44.5008 66.57 44.3923C66.394 44.2837 66.1282 44.177 65.7726 44.0722C65.4207 43.9636 64.979 43.9075 64.4474 43.9037L63.2008 43.8925V46.5485H66.1713V46.8237C66.1713 47.0183 66.1282 47.1531 66.0421 47.228C65.9598 47.3028 65.8269 47.3403 65.6434 47.3403H63.2008V50.277H64.2172C64.7188 50.277 65.2223 50.2433 65.7277 50.176C66.2368 50.1048 66.7328 49.9925 67.2157 49.8391C67.212 49.8391 67.2307 49.9064 67.2719 50.0412C67.313 50.176 67.3336 50.3201 67.3336 50.4736C67.3336 50.7057 67.2513 50.8685 67.0866 50.9621C66.9256 51.0519 66.6598 51.1025 66.2892 51.1137C65.9186 51.1287 65.4226 51.1362 64.8012 51.1362C64.4605 51.1362 64.1236 51.1324 63.7904 51.1249C63.4572 51.1175 63.1596 51.1081 62.8976 51.0969C62.6393 51.0894 62.4465 51.08 62.3192 51.0688ZM76.1289 50.1816L77.0385 49.5864L77.3137 49.9626C77.2014 50.1198 77.0516 50.292 76.8645 50.4792C76.6773 50.6664 76.4733 50.8292 76.2524 50.9677C76.0315 51.1025 75.8144 51.1699 75.601 51.1699C75.4925 51.1699 75.382 51.1418 75.2697 51.0856C75.1612 51.0332 75.0601 50.9321 74.9665 50.7824L73.2202 47.9748C73.1266 47.9748 72.9394 47.9729 72.6587 47.9692C72.3779 47.9617 72.0728 47.9448 71.7434 47.9186V49.3C71.7434 49.7754 71.7715 50.1479 71.8276 50.4174C71.8875 50.6832 71.9287 50.8704 71.9511 50.9789C71.8426 51.0388 71.7059 51.0856 71.5412 51.1193C71.3803 51.153 71.2343 51.1699 71.1032 51.1699C70.9086 51.1699 70.7457 51.1306 70.6147 51.0519C70.4874 50.9696 70.4238 50.8217 70.4238 50.6083V43.8813L69.3401 43.9487V43.4545C69.4149 43.4283 69.5179 43.3928 69.6489 43.3478C69.7837 43.2992 69.9765 43.2505 70.2273 43.2018C70.4818 43.1532 70.8225 43.112 71.2492 43.0783C71.676 43.0446 72.2207 43.0278 72.8833 43.0278C73.31 43.0278 73.7106 43.0652 74.0849 43.1401C74.4593 43.2149 74.7906 43.346 75.0788 43.5331C75.3671 43.7166 75.5917 43.973 75.7527 44.3024C75.9174 44.6319 75.9997 45.0511 75.9997 45.5602C75.9997 46.1068 75.8706 46.5691 75.6123 46.9472C75.3577 47.3216 74.989 47.5948 74.5061 47.767L76.1289 50.1816ZM71.7434 47.1269C71.7434 47.1269 71.8313 47.1475 72.0073 47.1887C72.1832 47.2298 72.4378 47.2504 72.771 47.2504C73.2838 47.2504 73.675 47.1699 73.9445 47.009C74.2178 46.848 74.405 46.6384 74.5061 46.3801C74.6071 46.1218 74.6577 45.8485 74.6577 45.5602C74.6577 45.3207 74.6352 45.0942 74.5903 44.8808C74.5491 44.6637 74.4612 44.4728 74.3264 44.308C74.1954 44.1396 73.997 44.0086 73.7312 43.915C73.4654 43.8176 73.1098 43.769 72.6643 43.769C72.5258 43.769 72.376 43.7727 72.2151 43.7802C72.0578 43.7877 71.9006 43.8027 71.7434 43.8251V47.1269ZM80.5386 43.3871L83.2733 49.8727H83.3463C83.6308 49.2513 83.8928 48.6804 84.1324 48.1601C84.372 47.6398 84.5648 47.1363 84.7108 46.6496C84.8568 46.1592 84.9297 45.6538 84.9297 45.1335C84.9297 44.8752 84.9092 44.6094 84.868 44.3361C84.8268 44.0628 84.7594 43.7765 84.6658 43.477L85.5755 43.0895C85.6279 43.0633 85.6747 43.0465 85.7159 43.039C85.7608 43.0315 85.802 43.0278 85.8394 43.0278C85.9779 43.0278 86.0865 43.0933 86.1651 43.2243C86.2475 43.3516 86.2886 43.52 86.2886 43.7297C86.2886 44.0404 86.2194 44.4634 86.0809 44.9987C85.9424 45.534 85.7477 46.1405 85.4969 46.8181C85.2461 47.4956 84.9485 48.2069 84.6041 48.9518C84.2597 49.6968 83.8816 50.4361 83.4698 51.1699H82.897C82.7173 51.1699 82.5788 51.138 82.4815 51.0744C82.3879 51.0108 82.3037 50.891 82.2288 50.715L79.3538 44.0217L78.3768 44.4653L78.1915 44.0666C78.2851 43.9805 78.4105 43.8794 78.5677 43.7634C78.7249 43.6436 78.8952 43.5275 79.0787 43.4152C79.2621 43.3029 79.4399 43.2112 79.6121 43.1401C79.7881 43.0652 79.9397 43.0278 80.067 43.0278C80.1643 43.0278 80.2523 43.0558 80.3309 43.112C80.4095 43.1644 80.4787 43.2561 80.5386 43.3871ZM89.463 43.7297H88.3793V43.2861C88.4953 43.2262 88.7106 43.1682 89.025 43.112C89.3395 43.0558 89.6802 43.0278 90.047 43.0278C90.3465 43.0278 90.543 43.0446 90.6366 43.0783C90.734 43.1083 90.7826 43.1887 90.7826 43.3198V50.423H91.8439V50.9059C91.7129 50.9771 91.492 51.0388 91.1813 51.0912C90.8706 51.1437 90.5655 51.1699 90.266 51.1699C90.0377 51.1699 89.8467 51.1362 89.6933 51.0688C89.5398 51.0051 89.463 50.8592 89.463 50.6308V43.7297ZM93.9963 47.1269C93.9963 46.2659 94.1536 45.5228 94.468 44.8976C94.7825 44.2687 95.2485 43.784 95.8662 43.4433C96.4839 43.0989 97.2476 42.9267 98.1572 42.9267C98.3669 42.9267 98.6121 42.9398 98.8928 42.966C99.1736 42.9885 99.4469 43.0278 99.7126 43.0839C99.9822 43.1401 100.205 43.2149 100.381 43.3085C100.557 43.4021 100.645 43.52 100.645 43.6623C100.645 43.7297 100.622 43.8027 100.577 43.8813L100.106 44.673C99.941 44.5794 99.737 44.454 99.4936 44.2968C99.2503 44.1396 98.9789 43.9973 98.6794 43.8701C98.38 43.739 98.0618 43.6735 97.7248 43.6735C97.2831 43.6735 96.9144 43.7765 96.6186 43.9824C96.3267 44.1845 96.0946 44.4522 95.9224 44.7853C95.7539 45.1148 95.6341 45.4741 95.563 45.8635C95.4919 46.2528 95.4563 46.6309 95.4563 46.9977C95.4563 47.6004 95.5649 48.162 95.782 48.6823C96.0028 49.2027 96.3341 49.6238 96.7759 49.9457C97.2176 50.2639 97.7716 50.423 98.438 50.423C98.715 50.423 98.9901 50.4006 99.2634 50.3557C99.5404 50.307 99.7913 50.2508 100.016 50.1872C100.24 50.1236 100.42 50.0693 100.555 50.0244C100.69 49.9757 100.757 49.9514 100.757 49.9514L100.987 50.3893C100.568 50.7188 100.102 50.9509 99.5891 51.0856C99.08 51.2204 98.5578 51.2878 98.0225 51.2878C97.2026 51.2878 96.4914 51.1193 95.8887 50.7824C95.286 50.4418 94.8199 49.9607 94.4905 49.3393C94.161 48.7141 93.9963 47.9767 93.9963 47.1269ZM104.274 51.0688C104.102 51.0501 103.986 51.0051 103.926 50.934C103.866 50.8629 103.836 50.7468 103.836 50.5859V43.8139H102.764V43.3647C102.913 43.3123 103.175 43.2617 103.55 43.2131C103.924 43.1607 104.364 43.1176 104.869 43.0839C105.378 43.0465 105.904 43.0278 106.447 43.0278C106.713 43.0278 107.009 43.0334 107.334 43.0446C107.664 43.0521 107.978 43.0746 108.278 43.112C108.577 43.1494 108.824 43.2056 109.019 43.2805C109.214 43.3516 109.311 43.4527 109.311 43.5837C109.311 43.6323 109.273 43.7297 109.199 43.8757C109.124 44.0217 109.043 44.1639 108.957 44.3024C108.875 44.4409 108.82 44.527 108.794 44.5607C108.794 44.557 108.704 44.5008 108.525 44.3923C108.349 44.2837 108.083 44.177 107.727 44.0722C107.375 43.9636 106.934 43.9075 106.402 43.9037L105.156 43.8925V46.5485H108.126V46.8237C108.126 47.0183 108.083 47.1531 107.997 47.228C107.915 47.3028 107.782 47.3403 107.598 47.3403H105.156V50.277H106.172C106.674 50.277 107.177 50.2433 107.682 50.176C108.192 50.1048 108.688 49.9925 109.17 49.8391C109.167 49.8391 109.185 49.9064 109.227 50.0412C109.268 50.176 109.288 50.3201 109.288 50.4736C109.288 50.7057 109.206 50.8685 109.041 50.9621C108.88 51.0519 108.615 51.1025 108.244 51.1137C107.873 51.1287 107.377 51.1362 106.756 51.1362C106.415 51.1362 106.078 51.1324 105.745 51.1249C105.412 51.1175 105.114 51.1081 104.852 51.0969C104.594 51.0894 104.401 51.08 104.274 51.0688Z" fill="white"/>
<path d="M23.8279 59.7219C23.4779 59.6369 23.4029 59.4369 23.6279 59.2319C23.8779 59.0319 86.3029 59.0069 86.5029 59.2069C86.6029 59.3069 86.5779 59.4069 86.4279 59.5569C86.2279 59.7569 84.3379 59.7819 55.1529 59.7819C38.0779 59.7819 23.9779 59.7569 23.8279 59.7169V59.7219Z" fill="white" stroke="white" stroke-width="0.125"/>
<path d="M16.9023 72.8803H17.7861C18.2223 72.8803 18.6602 72.851 19.0996 72.7924C19.5423 72.7306 19.9736 72.6329 20.3936 72.4995C20.3903 72.4995 20.4066 72.558 20.4424 72.6752C20.4782 72.7924 20.4961 72.9177 20.4961 73.0512C20.4961 73.2433 20.4277 73.38 20.291 73.4614C20.1576 73.5395 19.9297 73.5867 19.6074 73.603C19.2884 73.6192 18.8506 73.6274 18.2939 73.6274C17.9977 73.6274 17.7048 73.6241 17.415 73.6176C17.1253 73.6111 16.8665 73.603 16.6387 73.5932C16.4141 73.5867 16.2464 73.5786 16.1357 73.5688C15.986 73.5525 15.8851 73.5134 15.833 73.4516C15.7809 73.3898 15.7549 73.2888 15.7549 73.1489V67.187H14.8125V66.8012C14.9134 66.7491 15.1006 66.6987 15.374 66.6498C15.6475 66.601 15.9437 66.5766 16.2627 66.5766C16.5133 66.5766 16.6826 66.588 16.7705 66.6108C16.8584 66.6303 16.9023 66.7036 16.9023 66.8305V72.8803ZM26.2643 71.7084H23.2857C23.1848 72.06 23.1344 72.4067 23.1344 72.7485C23.1344 72.8689 23.1409 72.9861 23.1539 73.1C23.1669 73.214 23.1881 73.323 23.2174 73.4272L22.4557 73.6371C22.3775 73.6567 22.3043 73.6664 22.2359 73.6664C22.0374 73.6664 21.9381 73.5704 21.9381 73.3784C21.9381 73.3621 21.9397 73.3491 21.943 73.3393C21.9462 73.3263 21.9479 73.3133 21.9479 73.3002C21.9804 73.0203 22.0536 72.6931 22.1676 72.3188C22.2815 71.9444 22.4199 71.5473 22.5826 71.1274C22.7486 70.7075 22.9244 70.2859 23.11 69.8627C23.2988 69.4396 23.4843 69.0375 23.6666 68.6567C23.8521 68.2726 24.0198 67.9324 24.1695 67.6362C24.3193 67.3367 24.4397 67.1007 24.5309 66.9282C24.622 66.7556 24.6676 66.6694 24.6676 66.6694H25.1656C25.3284 66.6694 25.4488 66.6954 25.527 66.7475C25.6083 66.7996 25.6816 66.907 25.7467 67.0698L27.9977 72.7875L28.857 72.4506L29.0182 72.7973C28.9107 72.8982 28.7659 73.0187 28.5836 73.1586C28.4046 73.2986 28.2125 73.4223 28.0074 73.5297C27.8023 73.6371 27.6054 73.6909 27.4166 73.6909C27.3255 73.6909 27.2441 73.6697 27.1725 73.6274C27.1008 73.5851 27.0423 73.5118 26.9967 73.4077L26.2643 71.7084ZM24.7848 67.7875C24.5016 68.4483 24.2346 69.0506 23.984 69.5942C23.7366 70.1378 23.5576 70.6196 23.4469 71.0395H26.0152L24.8385 67.7875H24.7848ZM39.6854 72.7973L40.4764 72.2797L40.7156 72.6069C40.618 72.7436 40.4878 72.8933 40.325 73.0561C40.1622 73.2189 39.9848 73.3605 39.7928 73.4809C39.6007 73.5981 39.4119 73.6567 39.2264 73.6567C39.132 73.6567 39.0359 73.6323 38.9383 73.5834C38.8439 73.5379 38.756 73.45 38.6746 73.3198L37.1561 70.8784C37.0747 70.8784 36.9119 70.8767 36.6678 70.8735C36.4236 70.867 36.1583 70.8523 35.8719 70.8295V72.0307C35.8719 72.4441 35.8963 72.768 35.9451 73.0024C35.9972 73.2335 36.033 73.3963 36.0525 73.4907C35.9581 73.5427 35.8393 73.5834 35.6961 73.6127C35.5561 73.642 35.4292 73.6567 35.3152 73.6567C35.146 73.6567 35.0044 73.6225 34.8904 73.5541C34.7798 73.4825 34.7244 73.3539 34.7244 73.1684V67.3188L33.782 67.3774V66.9477C33.8471 66.9249 33.9367 66.894 34.0506 66.8549C34.1678 66.8126 34.3354 66.7703 34.5535 66.728C34.7749 66.6856 35.0711 66.6498 35.4422 66.6205C35.8133 66.5912 36.2869 66.5766 36.8631 66.5766C37.2342 66.5766 37.5825 66.6092 37.908 66.6743C38.2335 66.7394 38.5216 66.8533 38.7723 67.0161C39.0229 67.1756 39.2182 67.3985 39.3582 67.685C39.5014 67.9715 39.573 68.336 39.573 68.7787C39.573 69.254 39.4607 69.656 39.2361 69.9848C39.0148 70.3103 38.6941 70.548 38.2742 70.6977L39.6854 72.7973ZM35.8719 70.1411C35.8719 70.1411 35.9484 70.159 36.1014 70.1948C36.2544 70.2306 36.4757 70.2485 36.7654 70.2485C37.2114 70.2485 37.5516 70.1785 37.7859 70.0385C38.0236 69.8985 38.1863 69.7162 38.2742 69.4916C38.3621 69.267 38.4061 69.0294 38.4061 68.7787C38.4061 68.5704 38.3865 68.3735 38.3475 68.1879C38.3117 67.9991 38.2352 67.8331 38.118 67.6899C38.004 67.5434 37.8315 67.4295 37.6004 67.3481C37.3693 67.2634 37.06 67.2211 36.6727 67.2211C36.5522 67.2211 36.422 67.2244 36.282 67.2309C36.1453 67.2374 36.0086 67.2504 35.8719 67.27V70.1411ZM48.9154 70.1264C48.9154 70.8425 48.7836 71.4741 48.5199 72.0209C48.2595 72.5678 47.8835 72.9942 47.392 73.3002C46.9005 73.6062 46.3113 73.7592 45.6244 73.7592C44.9376 73.7592 44.3467 73.6062 43.852 73.3002C43.3604 72.9942 42.9828 72.5678 42.7191 72.0209C42.4555 71.4741 42.3236 70.8425 42.3236 70.1264C42.3236 69.4103 42.4555 68.7787 42.7191 68.2319C42.9828 67.685 43.3604 67.2586 43.852 66.9526C44.3467 66.6433 44.9376 66.4887 45.6244 66.4887C46.3113 66.4887 46.9005 66.6433 47.392 66.9526C47.8835 67.2586 48.2595 67.685 48.5199 68.2319C48.7836 68.7787 48.9154 69.4103 48.9154 70.1264ZM43.5932 70.1264C43.5932 70.7123 43.6583 71.2332 43.7885 71.6889C43.9219 72.1414 44.1368 72.4962 44.433 72.7534C44.7325 73.0105 45.1296 73.1391 45.6244 73.1391C46.116 73.1391 46.5082 73.0105 46.8012 72.7534C47.0974 72.4929 47.3122 72.1365 47.4457 71.684C47.5792 71.2283 47.6459 70.7091 47.6459 70.1264C47.6459 69.573 47.5808 69.0685 47.4506 68.6127C47.3204 68.157 47.1072 67.7924 46.8109 67.519C46.518 67.2455 46.1225 67.1088 45.6244 67.1088C45.2533 67.1088 44.9376 67.1902 44.6771 67.353C44.42 67.5125 44.2117 67.7338 44.0521 68.017C43.8926 68.297 43.7755 68.6192 43.7006 68.9838C43.629 69.3452 43.5932 69.726 43.5932 70.1264ZM51.0801 70.1411C51.0801 69.3924 51.2168 68.7462 51.4902 68.2026C51.7637 67.6557 52.1689 67.2342 52.7061 66.9379C53.2432 66.6384 53.9072 66.4887 54.6982 66.4887C54.8805 66.4887 55.0938 66.5001 55.3379 66.5229C55.582 66.5424 55.8197 66.5766 56.0508 66.6254C56.2852 66.6743 56.4788 66.7394 56.6318 66.8207C56.7848 66.9021 56.8613 67.0047 56.8613 67.1284C56.8613 67.187 56.8418 67.2504 56.8027 67.3188L56.3926 68.0073C56.2493 67.9259 56.0719 67.8168 55.8604 67.6801C55.6488 67.5434 55.4128 67.4197 55.1523 67.309C54.8919 67.1951 54.6152 67.1381 54.3223 67.1381C53.9382 67.1381 53.6175 67.2276 53.3604 67.4067C53.1064 67.5825 52.9046 67.8152 52.7549 68.1049C52.6084 68.3914 52.5042 68.7039 52.4424 69.0424C52.3805 69.381 52.3496 69.7097 52.3496 70.0287C52.3496 70.5528 52.444 71.0411 52.6328 71.4936C52.8249 71.9461 53.113 72.3123 53.4971 72.5922C53.8812 72.8689 54.363 73.0073 54.9424 73.0073C55.1833 73.0073 55.4225 72.9877 55.6602 72.9487C55.901 72.9064 56.1191 72.8575 56.3145 72.8022C56.5098 72.7468 56.666 72.6996 56.7832 72.6606C56.9004 72.6183 56.959 72.5971 56.959 72.5971L57.1592 72.978C56.7946 73.2644 56.3893 73.4662 55.9434 73.5834C55.5007 73.7006 55.0465 73.7592 54.5811 73.7592C53.8682 73.7592 53.2497 73.6127 52.7256 73.3198C52.2015 73.0235 51.7962 72.6052 51.5098 72.0649C51.2233 71.5213 51.0801 70.88 51.0801 70.1411ZM65.3102 73.0073H66.233V73.4272C66.1158 73.489 65.9221 73.5427 65.652 73.5883C65.385 73.6339 65.1214 73.6567 64.8609 73.6567C64.6624 73.6567 64.4964 73.6274 64.3629 73.5688C64.2294 73.5134 64.1627 73.3865 64.1627 73.1879V70.2973H60.7887V72.0307C60.7887 72.4441 60.8082 72.768 60.8473 73.0024C60.8896 73.2335 60.9205 73.3963 60.94 73.4907C60.8456 73.5427 60.7317 73.5834 60.5982 73.6127C60.4648 73.642 60.3427 73.6567 60.232 73.6567C60.0628 73.6567 59.9212 73.6225 59.8072 73.5541C59.6966 73.4825 59.6412 73.3539 59.6412 73.1684V67.187H58.6988V66.8012C58.7997 66.7491 58.9869 66.6987 59.2604 66.6498C59.5338 66.601 59.83 66.5766 60.149 66.5766H60.3688C60.4957 66.5766 60.5966 66.5831 60.6715 66.5961C60.7496 66.6092 60.7887 66.6873 60.7887 66.8305V69.6088H64.1627V68.1586C64.1627 67.742 64.1415 67.4246 64.0992 67.2065C64.0602 66.9884 64.0309 66.8321 64.0113 66.7377C64.1057 66.6824 64.2197 66.6417 64.3531 66.6157C64.4866 66.5896 64.6087 66.5766 64.7193 66.5766C64.8919 66.5766 65.0335 66.6108 65.1441 66.6791C65.2548 66.7475 65.3102 66.8745 65.3102 67.06V73.0073ZM69.1008 73.5688C68.951 73.5525 68.8501 73.5134 68.798 73.4516C68.746 73.3898 68.7199 73.2888 68.7199 73.1489V67.2602H67.7873V66.8696C67.9175 66.824 68.1454 66.78 68.4709 66.7377C68.7964 66.6922 69.1789 66.6547 69.6184 66.6254C70.0611 66.5929 70.5184 66.5766 70.9904 66.5766C71.2215 66.5766 71.4787 66.5815 71.7619 66.5912C72.0484 66.5978 72.3218 66.6173 72.5822 66.6498C72.8426 66.6824 73.0575 66.7312 73.2268 66.7963C73.396 66.8582 73.4807 66.9461 73.4807 67.06C73.4807 67.1023 73.4481 67.187 73.383 67.3139C73.3179 67.4409 73.2479 67.5646 73.173 67.685C73.1014 67.8054 73.0542 67.8803 73.0314 67.9096C73.0314 67.9064 72.9533 67.8575 72.7971 67.7631C72.6441 67.6687 72.413 67.5759 72.1037 67.4848C71.7977 67.3904 71.4136 67.3416 70.9514 67.3383L69.8674 67.3286V69.6381H72.4504V69.8774C72.4504 70.0467 72.413 70.1638 72.3381 70.2289C72.2665 70.294 72.1509 70.3266 71.9914 70.3266H69.8674V72.8803H70.7512C71.1874 72.8803 71.6252 72.851 72.0646 72.7924C72.5074 72.7306 72.9387 72.6329 73.3586 72.4995C73.3553 72.4995 73.3716 72.558 73.4074 72.6752C73.4432 72.7924 73.4611 72.9177 73.4611 73.0512C73.4611 73.253 73.3895 73.3946 73.2463 73.476C73.1063 73.5541 72.8752 73.5981 72.5529 73.6078C72.2307 73.6209 71.7993 73.6274 71.259 73.6274C70.9628 73.6274 70.6698 73.6241 70.3801 73.6176C70.0904 73.6111 69.8316 73.603 69.6037 73.5932C69.3791 73.5867 69.2115 73.5786 69.1008 73.5688ZM77.2859 72.8803H78.1697C78.6059 72.8803 79.0438 72.851 79.4832 72.7924C79.9259 72.7306 80.3572 72.6329 80.7771 72.4995C80.7739 72.4995 80.7902 72.558 80.826 72.6752C80.8618 72.7924 80.8797 72.9177 80.8797 73.0512C80.8797 73.2433 80.8113 73.38 80.6746 73.4614C80.5411 73.5395 80.3133 73.5867 79.991 73.603C79.672 73.6192 79.2342 73.6274 78.6775 73.6274C78.3813 73.6274 78.0883 73.6241 77.7986 73.6176C77.5089 73.6111 77.2501 73.603 77.0223 73.5932C76.7977 73.5867 76.63 73.5786 76.5193 73.5688C76.3696 73.5525 76.2687 73.5134 76.2166 73.4516C76.1645 73.3898 76.1385 73.2888 76.1385 73.1489V67.187H75.1961V66.8012C75.297 66.7491 75.4842 66.6987 75.7576 66.6498C76.0311 66.601 76.3273 66.5766 76.6463 66.5766C76.8969 66.5766 77.0662 66.588 77.1541 66.6108C77.242 66.6303 77.2859 66.7036 77.2859 66.8305V72.8803ZM84.2406 72.8803H85.1244C85.5606 72.8803 85.9984 72.851 86.4379 72.7924C86.8806 72.7306 87.3119 72.6329 87.7318 72.4995C87.7286 72.4995 87.7449 72.558 87.7807 72.6752C87.8165 72.7924 87.8344 72.9177 87.8344 73.0512C87.8344 73.2433 87.766 73.38 87.6293 73.4614C87.4958 73.5395 87.268 73.5867 86.9457 73.603C86.6267 73.6192 86.1889 73.6274 85.6322 73.6274C85.336 73.6274 85.043 73.6241 84.7533 73.6176C84.4636 73.6111 84.2048 73.603 83.977 73.5932C83.7523 73.5867 83.5847 73.5786 83.474 73.5688C83.3243 73.5525 83.2234 73.5134 83.1713 73.4516C83.1192 73.3898 83.0932 73.2888 83.0932 73.1489V67.187H82.1508V66.8012C82.2517 66.7491 82.4389 66.6987 82.7123 66.6498C82.9857 66.601 83.282 66.5766 83.601 66.5766C83.8516 66.5766 84.0209 66.588 84.1088 66.6108C84.1967 66.6303 84.2406 66.7036 84.2406 66.8305V72.8803ZM90.4238 73.5688C90.2741 73.5525 90.1732 73.5134 90.1211 73.4516C90.069 73.3898 90.043 73.2888 90.043 73.1489V67.2602H89.1104V66.8696C89.2406 66.824 89.4684 66.78 89.7939 66.7377C90.1195 66.6922 90.502 66.6547 90.9414 66.6254C91.3841 66.5929 91.8415 66.5766 92.3135 66.5766C92.5446 66.5766 92.8018 66.5815 93.085 66.5912C93.3714 66.5978 93.6449 66.6173 93.9053 66.6498C94.1657 66.6824 94.3805 66.7312 94.5498 66.7963C94.7191 66.8582 94.8037 66.9461 94.8037 67.06C94.8037 67.1023 94.7712 67.187 94.7061 67.3139C94.641 67.4409 94.571 67.5646 94.4961 67.685C94.4245 67.8054 94.3773 67.8803 94.3545 67.9096C94.3545 67.9064 94.2764 67.8575 94.1201 67.7631C93.9671 67.6687 93.736 67.5759 93.4268 67.4848C93.1208 67.3904 92.7367 67.3416 92.2744 67.3383L91.1904 67.3286V69.6381H93.7734V69.8774C93.7734 70.0467 93.736 70.1638 93.6611 70.2289C93.5895 70.294 93.474 70.3266 93.3145 70.3266H91.1904V72.8803H92.0742C92.5104 72.8803 92.9482 72.851 93.3877 72.7924C93.8304 72.7306 94.2617 72.6329 94.6816 72.4995C94.6784 72.4995 94.6947 72.558 94.7305 72.6752C94.7663 72.7924 94.7842 72.9177 94.7842 73.0512C94.7842 73.253 94.7126 73.3946 94.5693 73.476C94.4294 73.5541 94.1982 73.5981 93.876 73.6078C93.5537 73.6209 93.1224 73.6274 92.582 73.6274C92.2858 73.6274 91.9928 73.6241 91.7031 73.6176C91.4134 73.6111 91.1546 73.603 90.9268 73.5932C90.7021 73.5867 90.5345 73.5786 90.4238 73.5688Z" fill="white"/>
<path d="M97.6657 1.18702C97.5407 1.10196 97.4657 0.936865 97.5157 0.836804C97.6007 0.586651 99.1007 0.451567 100.466 0.561634C101.591 0.661695 101.756 0.821799 101.051 1.16201C100.486 1.42217 98.0157 1.44718 97.6607 1.18702H97.6657Z" fill="white" stroke="white" stroke-width="0.125"/>
</svg>
